<mxfile host="app.diagrams.net" modified="2024-07-21T14:01:00.747Z" agent="Mozilla/5.0 (Windows NT 10.0; Win64; x64) AppleWebKit/537.36 (KHTML, like Gecko) Chrome/126.0.0.0 Safari/537.36 Edg/126.0.0.0" version="24.6.5" etag="G5-v5B1ICUnW_nn2ht4A" type="github">
  <diagram name="第 1 页" id="fF2ro_yxTsyJObpUNFjL">
    <mxGraphModel>
      <root>
        <mxCell id="0" />
        <mxCell id="1" parent="0" />
      </root>
    </mxGraphModel>
  </diagram>
</mxfile>
